<?xml version="1.0" encoding="iso-8859-1"?>
<!-- Generator: Adobe Illustrator 19.0.0, SVG Export Plug-In . SVG Version: 6.00 Build 0)  -->
<svg version="1.1" id="Layer_1" xmlns="http://www.w3.org/2000/svg" xmlns:xlink="http://www.w3.org/1999/xlink" x="0px" y="0px"
	 viewBox="0 0 512 512" style="enable-background:new 0 0 512 512;" xml:space="preserve">
<g>
	<g>
		<path d="M432.242,415.728l-64.993-45.938c0-252.354,0.116-218.387-0.306-228.984C362.031,62.107,296.442,0,216.988,0H27.77
			c-9.22,0-16.584,7.475-16.584,16.696v178.087c0,9.22,7.364,16.696,16.584,16.696h161.842c7.707,0,14.425,5.328,16.226,12.763
			c12.706,126.153,26.527,131.27-0.344,195.114C187.008,463.284,219.479,512,267.075,512h183.652
			c27.618,0,50.087-22.469,50.087-50.087C500.814,426.079,463.925,401.955,432.242,415.728z M278.886,51.174
			c27.859,17.467,47.864,46.346,53.411,80.038c-4.87,1.539-9.974,2.353-15.135,2.353c-27.618,0-50.087-22.469-50.087-50.087
			C267.075,71.446,271.298,60.122,278.886,51.174z M133.621,178.087H44.466V33.391h89.155V178.087z M189.613,178.087h-22.712V33.391
			h50.087c10.545,0,20.766,1.412,30.491,4.043c-8.925,13.458-13.795,29.345-13.795,46.044c0,46.03,37.448,83.478,83.478,83.478
			c5.628,0,11.333-0.577,16.807-1.691v79.604h-92.316c-0.075-0.648-2.872-26.258-2.924-26.517
			C234.064,195.021,213.407,178.087,189.613,178.087z M450.726,478.609H267.074c-23.891,0-39.995-24.461-30.803-46.299
			c25.593-60.804,19.318-80.904,9.548-154.049h88.149v100.174c0.002,5.422,2.523,10.505,6.95,13.634l80.727,57.059
			c5.877,4.153,13.754,4.075,19.548-0.198c12.432-9.174,26.23,0.671,26.23,12.984C467.422,471.119,459.932,478.609,450.726,478.609z
			"/>
	</g>
</g>
<g>
	<g>
		<path d="M317.162,411.826H283.77c-9.22,0-16.696,7.475-16.696,16.696s7.475,16.696,16.696,16.696h33.391
			c9.22,0,16.696-7.475,16.696-16.696S326.382,411.826,317.162,411.826z"/>
	</g>
</g>
<g>
</g>
<g>
</g>
<g>
</g>
<g>
</g>
<g>
</g>
<g>
</g>
<g>
</g>
<g>
</g>
<g>
</g>
<g>
</g>
<g>
</g>
<g>
</g>
<g>
</g>
<g>
</g>
<g>
</g>
</svg>
