<?xml version="1.0" encoding="iso-8859-1"?>
<!-- Generator: Adobe Illustrator 19.0.0, SVG Export Plug-In . SVG Version: 6.00 Build 0)  -->
<svg version="1.1" id="Capa_1" xmlns="http://www.w3.org/2000/svg" xmlns:xlink="http://www.w3.org/1999/xlink" x="0px" y="0px"
	 viewBox="0 0 512 512" style="enable-background:new 0 0 512 512;" xml:space="preserve">
<g>
	<g>
		<path d="M512,432.33l-23.238-18.959c-10.296,12.619-25.542,19.857-41.828,19.857h-10.744
			c-1.833-29.883-26.716-53.635-57.051-53.635h-7.076v-10.962h16.075V0.091H75.689v368.54h16.075v10.962v29.991v23.645H65.066
			c-16.287,0-31.532-7.238-41.828-19.857L0,432.33c13.562,16.623,32.646,27.24,53.558,30.104c-0.864,3.235-1.33,6.631-1.33,10.134
			c0,21.692,17.647,39.341,39.34,39.341c21.692,0,39.341-17.648,39.341-39.341c0-3.221-0.398-6.35-1.132-9.349H250.25h27.576
			h104.398c-0.734,2.998-1.132,6.127-1.132,9.349c0,21.692,17.647,39.341,39.34,39.341c21.692,0,39.34-17.648,39.34-39.341
			c0-3.503-0.467-6.899-1.33-10.134C479.354,459.57,498.438,448.953,512,432.33z M358.148,30.082v38.076
			c-18.377-5.2-32.877-19.7-38.077-38.076H358.148z M91.568,481.917c-5.155,0-9.349-4.194-9.349-9.35
			c0-5.154,4.194-9.349,9.349-9.349c5.155,0,9.35,4.194,9.35,9.349C100.917,477.723,96.724,481.917,91.568,481.917z M105.679,30.082
			h38.077c-5.2,18.377-19.7,32.877-38.077,38.076V30.082z M105.68,338.641V98.889c34.95-6.238,62.568-33.856,68.807-68.807h42.432
			v43.715c-25.755,6.672-44.832,30.111-44.832,57.924v206.919H105.68z M156.011,368.631v10.962h-34.256v-10.962H156.011z
			 M121.755,433.228v-23.645h64.247h7.076c13.789,0,25.213,10.322,26.952,23.645H121.755z M277.827,379.593v29.991v23.645h-27.698
			c-1.833-29.883-26.716-53.635-57.051-53.635h-7.076v-10.962h16.075v-236.91c0-16.453,13.385-29.838,29.838-29.838
			s29.838,13.385,29.838,29.838v236.91h16.075V379.593z M246.908,73.797V30.082h0.001h42.432
			c6.239,34.95,33.856,62.568,68.807,68.807v239.752h-66.406V131.721C291.741,103.908,272.664,80.469,246.908,73.797z
			 M342.073,368.631v10.962h-34.256v-10.962H342.073z M307.816,433.228v-23.645h0.001h64.247h7.076
			c13.789,0,25.213,10.322,26.952,23.645H307.816z M420.432,481.917c-5.155,0-9.349-4.194-9.349-9.35
			c0-5.154,4.194-9.349,9.349-9.349s9.349,4.194,9.349,9.349C429.782,477.723,425.587,481.917,420.432,481.917z"/>
	</g>
</g>
<g>
</g>
<g>
</g>
<g>
</g>
<g>
</g>
<g>
</g>
<g>
</g>
<g>
</g>
<g>
</g>
<g>
</g>
<g>
</g>
<g>
</g>
<g>
</g>
<g>
</g>
<g>
</g>
<g>
</g>
</svg>
