<?xml version="1.0" encoding="iso-8859-1"?>
<!-- Generator: Adobe Illustrator 19.0.0, SVG Export Plug-In . SVG Version: 6.00 Build 0)  -->
<svg version="1.1" id="Capa_1" xmlns="http://www.w3.org/2000/svg" xmlns:xlink="http://www.w3.org/1999/xlink" x="0px" y="0px"
	 viewBox="0 0 512 512" style="enable-background:new 0 0 512 512;" xml:space="preserve">
<g>
	<g>
		<path d="M331.169,86.435v141.131h-74.982v-6.855L75.355,86.435v141.131H0v197.999h226.185h30.001H512v-71v-15.001V220.71
			L331.169,86.435z M180.771,202.079l34.323,25.486h-34.323V202.079z M105.356,146.08l45.414,33.722v47.763h-45.414V146.08z
			 M105.356,257.567h45.414v25.998h-45.414V257.567z M226.186,395.564h-0.001H30.001V257.567h45.353v56h75.416v55.999h75.416
			V395.564z M226.186,339.564h-45.414v-25.997h45.414V339.564z M226.186,283.565h-45.414v-25.998h45.414V283.565z M436.584,339.564
			v-40.998v-15.001v-81.486l45.414,33.723v103.763h-45.414V339.564z M361.17,242.566v-15.001V146.08l45.413,33.722v103.764H361.17
			V242.566z M256.186,257.567h74.982v25.998h-74.982V257.567z M256.186,313.567H361.17h45.413v25.997H256.186V313.567z
			 M481.999,395.564H256.186v-25.998h180.398h45.414V395.564z"/>
	</g>
</g>
<g>
</g>
<g>
</g>
<g>
</g>
<g>
</g>
<g>
</g>
<g>
</g>
<g>
</g>
<g>
</g>
<g>
</g>
<g>
</g>
<g>
</g>
<g>
</g>
<g>
</g>
<g>
</g>
<g>
</g>
</svg>
